HIERARCHY
ROOT Hips
{
  OFFSET 265.287 66.7526 -254.649
  CHANNELS 6 Xposition Yposition Zposition Zrotation Xrotation Yrotation
  JOINT LeftUpLeg
  {
    OFFSET 8.64259 1.95398 -2.38835
    CHANNELS 3 Zrotation Xrotation Yrotation
    JOINT LeftLeg
    {
      OFFSET 43.7702 0 0
      CHANNELS 3 Zrotation Xrotation Yrotation
      JOINT LeftFoot
      {
        OFFSET 40.6238 0 0
        CHANNELS 3 Zrotation Xrotation Yrotation
        JOINT LeftToeBase
        {
          OFFSET 12.7242 0 0
          CHANNELS 3 Zrotation Xrotation Yrotation
          End Site
          {
            OFFSET 0 0 0
          }
        }
      }
    }
  }
  JOINT RightUpLeg
  {
    OFFSET -8.2249 1.95398 -2.59336
    CHANNELS 3 Zrotation Xrotation Yrotation
    JOINT RightLeg
    {
      OFFSET 43.5653 0 0
      CHANNELS 3 Zrotation Xrotation Yrotation
      JOINT RightFoot
      {
        OFFSET 40.6238 0 0
        CHANNELS 3 Zrotation Xrotation Yrotation
        JOINT RightToeBase
        {
          OFFSET 12.7242 0 0
          CHANNELS 3 Zrotation Xrotation Yrotation
          End Site
          {
            OFFSET 0 0 0
          }
        }
      }
    }
  }
  JOINT Spine
  {
    OFFSET 0.165834 0.87714 6.61349
    CHANNELS 3 Zrotation Xrotation Yrotation
    JOINT Spine1
    {
      OFFSET 7.38963 1.71661e-005 0
      CHANNELS 3 Zrotation Xrotation Yrotation
      JOINT Spine2
      {
        OFFSET 11.9445 1.14441e-005 0
        CHANNELS 3 Zrotation Xrotation Yrotation
        JOINT Spine3
        {
          OFFSET 14.7254 4.19617e-005 0
          CHANNELS 3 Zrotation Xrotation Yrotation
          JOINT Spine4
          {
            OFFSET 10.9679 0 0
            CHANNELS 3 Zrotation Xrotation Yrotation
            JOINT RightShoulder
            {
              OFFSET 2.46616 -1.6653 3.69651
              CHANNELS 3 Zrotation Xrotation Yrotation
              JOINT RightArm
              {
                OFFSET 13.0012 0 0
                CHANNELS 3 Zrotation Xrotation Yrotation
                JOINT RightForeArm
                {
                  OFFSET 28.7848 1.52588e-005 0
                  CHANNELS 3 Zrotation Xrotation Yrotation
                  JOINT RightHand
                  {
                    OFFSET 26.5688 1.52588e-005 0
                    CHANNELS 3 Zrotation Xrotation Yrotation
                    End Site
                    {
                      OFFSET 0 0 0
                    }
                  }
                }
              }
            }
            JOINT LeftShoulder
            {
              OFFSET 2.38034 -1.29275 -3.7523
              CHANNELS 3 Zrotation Xrotation Yrotation
              JOINT LeftArm
              {
                OFFSET 16.3182 6.10351e-005 0
                CHANNELS 3 Zrotation Xrotation Yrotation
                JOINT LeftForeArm
                {
                  OFFSET 27.0901 0 0
                  CHANNELS 3 Zrotation Xrotation Yrotation
                  JOINT LeftHand
                  {
                    OFFSET 24.5451 1.52588e-005 0
                    CHANNELS 3 Zrotation Xrotation Yrotation
                    End Site
                    {
                      OFFSET 0 0 0
                    }
                  }
                }
              }
            }
            JOINT Neck
            {
              OFFSET 5.0226 -0.0266342 0
              CHANNELS 3 Zrotation Xrotation Yrotation
              JOINT Head
              {
                OFFSET 6.69364 2.86102e-005 0
                CHANNELS 3 Zrotation Xrotation Yrotation
                End Site
                {
                  OFFSET 0 0 0
                }
              }
            }
          }
        }
      }
    }
  }
}
MOTION
Frames:	12
Frame Time:	0.0416667
-2.09925 10.4277 -58.0469 175.628 -1.1008 175.613 -171.484 1.97134 90.3318 -6.33493 -17.4254 -2.59872 43.1851 -5.29 -9.81186 26.3509 0.173867 4.28211 174.513 4.71371 83.0028 -7.78209 6.8354 -1.84571 42.3152 10.2713 28.0244 24.2809 1.66702 -6.41734 -0.228793 5.56263 -89.7529 15.7492 -0.327467 0.55451 4.07819 -0.30294 0.570484 -18.4567 -0.477621 0.426159 1.55593 -0.47762 0.426158 100.142 -38.972 -85.8045 24.7976 -13.1855 11.2008 -0.0346396 -56.3927 -15.0814 -2.13696 -0.175892 6.07729 -80.195 -41.9876 92.9208 -27.0998 19.5929 1.99732 -3.89493 49.5276 -5.289 -1.14018 -0.0562647 -1.57298 25.2005 8.60475 13.8624 -34.4221 6.23646 -10.6702 
-2.135 10.3941 -58.0615 175.349 -0.766942 175.733 -171.407 1.77152 90.5153 -6.41223 -17.5497 -2.56363 43.0572 -5.27723 -10.1571 26.2995 0.192 4.29596 174.61 4.29539 83.1895 -7.68313 6.65498 -1.92184 42.1629 10.3302 27.5678 24.7992 1.60096 -6.68133 -0.255309 5.6002 -89.755 15.6743 -0.381097 0.55267 4.00324 -0.356358 0.568802 -18.5318 -0.529937 0.413707 1.48088 -0.529936 0.413707 100.287 -38.3999 -85.5707 25.3808 -12.444 10.8956 -0.485964 -57.2292 -14.8934 -1.36878 -0.0935778 5.04125 -80.1805 -41.4925 92.9192 -27.496 19.5352 1.81297 -4.11039 49.63 -4.9706 -1.01646 -0.059472 -1.65715 25.0175 8.43268 13.6244 -34.1477 6.08226 -10.4101 
-2.16839 10.3952 -58.0419 175.376 -0.897436 175.836 -171.189 1.95552 90.7184 -6.57621 -19.2252 -2.81868 43.4699 -5.1479 -10.5581 24.9114 0.860194 2.30381 174.763 4.40725 83.3458 -7.66686 7.00156 -1.9947 42.0266 10.3697 27.7923 24.8166 1.5967 -6.67752 -0.244804 5.6148 -89.7746 15.645 -0.370299 0.512547 3.97399 -0.347382 0.528343 -18.5611 -0.507226 0.377571 1.45154 -0.50722 0.377567 100.33 -38.5542 -85.4863 25.1192 -12.4063 10.6703 -0.987555 -57.8355 -15.3471 -1.12769 -0.0735419 5.27733 -80.2239 -41.8684 92.8658 -27.0627 19.4558 1.44794 -4.15929 49.6363 -4.88643 -1.62179 -0.0750229 -2.01272 25.1404 8.39294 13.7869 -33.8748 5.90039 -10.2649 
-2.18859 10.3995 -58.0305 175.274 -1.24013 176.005 -171.088 2.37518 90.8637 -6.61616 -19.0439 -2.81056 43.2683 -5.17008 -10.768 25.0452 0.772143 2.64381 174.918 4.56801 83.581 -7.35174 7.18886 -1.9928 41.8589 10.3762 27.6353 24.8175 1.57089 -6.51102 -0.249242 5.62751 -89.8057 15.6196 -0.394749 0.45347 3.9486 -0.374411 0.470405 -18.5867 -0.51279 0.313873 1.42595 -0.51279 0.313867 100.351 -38.5755 -85.4462 24.9207 -12.5391 10.121 -0.802359 -57.7207 -15.2357 -1.13579 -0.0723111 5.40596 -80.1623 -42.3129 92.9911 -26.429 19.708 0.775331 -4.34934 49.3176 -4.81604 -1.76788 -0.0785141 -2.08663 26.2077 8.73646 14.2943 -34.7528 6.17788 -10.9597 
-2.28324 10.4155 -58.0302 174.946 -1.19389 176.312 -170.773 2.458 91.28 -6.6798 -18.6671 -2.85336 43.2567 -5.14909 -10.852 24.9849 0.811336 2.49851 175.116 4.14742 83.9969 -6.83502 7.68054 -2.03819 41.7514 10.3068 27.5671 24.712 1.60146 -6.56782 -0.278509 5.69888 -89.853 15.4769 -0.476705 0.369903 3.80601 -0.459962 0.390533 -18.7297 -0.56584 0.209526 1.28299 -0.565838 0.209536 100.423 -38.6074 -85.3151 24.8244 -12.3231 9.5573 -0.839663 -57.0782 -14.9448 -1.25926 -0.0821046 4.66024 -80.2047 -42.8635 92.9495 -25.6296 20.0826 0.0607803 -4.48712 48.6755 -4.8827 -1.83638 -0.0784875 -2.03577 27.2771 8.97987 14.5628 -35.2673 6.28141 -11.216 
-2.2917 10.4093 -58.0393 174.744 -1.51783 176.417 -170.865 2.87816 91.2803 -6.69357 -18.585 -2.72699 43.2795 -5.1087 -10.9741 24.8388 0.859917 2.45824 175.229 4.38174 84.1423 -6.70959 8.01815 -2.03506 41.6085 10.3625 27.5384 24.7098 1.64804 -6.86609 -0.2987 5.74675 -89.8782 15.3813 -0.529477 0.326567 3.71044 -0.51459 0.349552 -18.8255 -0.603146 0.152336 1.18717 -0.603146 0.152326 100.518 -38.8056 -85.1337 24.2967 -12.4166 8.43992 -0.330109 -57.0483 -14.5629 -1.12912 -0.0740409 5.30536 -80.0972 -43.6244 93.1639 -24.5095 20.4388 -0.985928 -4.6581 48.0995 -4.88386 -1.89042 -0.0799264 -2.06286 28.2257 9.28227 15.2315 -35.322 6.34443 -11.8065 
-2.36687 10.4334 -58.0435 174.39 -1.61293 176.734 -170.634 3.15394 91.6384 -6.76254 -17.8403 -2.6921 43.0922 -5.11487 -11.006 25.098 0.758877 2.63058 175.462 3.97321 84.5609 -5.90259 8.93094 -2.11735 41.2357 10.3394 27.746 24.4457 1.65093 -6.53061 -0.321457 5.82848 -89.94 15.2177 -0.605677 0.212525 3.54689 -0.595734 0.238966 -18.9894 -0.641547 0.0206611 1.02324 -0.641545 0.020658 100.581 -39.1372 -85.0072 23.6558 -12.4816 7.59745 -0.245086 -56.4309 -14.4169 -1.26713 -0.0852748 5.06384 -80.1308 -44.5226 93.1518 -23.2775 20.7943 -2.13428 -4.92383 47.4373 -4.79961 -1.86295 -0.0819361 -2.00139 29.7634 9.80716 15.9929 -36.2536 6.64674 -12.6152 
-2.41548 10.4318 -58.0138 174.211 -1.88369 176.943 -170.455 3.51407 91.8721 -6.82223 -17.6122 -2.73796 43.0495 -5.10308 -11.0867 25.3135 0.68071 2.74137 175.651 3.99705 84.8572 -5.48875 9.06908 -2.13556 41.1652 10.2662 27.4108 24.5645 1.6046 -6.39174 -0.322403 5.91113 -89.997 15.0521 -0.636195 0.101055 3.38136 -0.631124 0.128955 -19.1551 -0.637152 -0.0948343 0.857606 -0.637156 -0.0948346 100.746 -39.2072 -84.7095 23.1858 -12.5599 6.36857 0.0830043 -56.1009 -13.9446 -1.24965 -0.0832333 5.00682 -80.094 -45.53 93.2581 -21.8137 21.2001 -3.5978 -5.33374 46.696 -4.61873 -1.9322 -0.0839935 -2.00611 30.5843 10.0143 17.0309 -35.5052 6.23346 -12.7923 
-2.44347 10.4392 -58.0205 173.975 -2.08099 177.177 -170.458 3.84152 92.0291 -6.87663 -17.534 -2.59222 42.9058 -5.07278 -11.4132 25.3883 0.63341 2.91812 175.87 4.04994 85.1554 -5.2942 9.82298 -2.21217 40.829 10.3371 27.6961 24.8069 1.6051 -6.71928 -0.336188 6.01244 -90.0576 14.8493 -0.693717 -0.0139501 3.17852 -0.693664 0.0165916 -19.358 -0.657461 -0.221801 0.654623 -0.657456 -0.221809 100.86 -39.4228 -84.4964 22.4636 -12.6912 5.00884 0.453095 -55.6597 -13.6534 -1.27088 -0.0868098 5.30955 -80.049 -46.6766 93.3813 -20.2994 21.1827 -5.14853 -5.6311 46.2334 -4.29237 -2.12689 -0.085584 -2.06115 33.0978 11.0822 18.169 -37.589 7.11875 -14.5498 
-2.50707 10.4496 -58.0105 173.751 -2.24275 177.353 -170.336 4.10421 92.2028 -6.86419 -16.898 -2.57795 43.1143 -5.03224 -11.1391 25.2712 0.646708 3.05584 175.971 4.09022 85.3924 -5.19586 10.0598 -2.16067 41.0732 10.3094 27.4194 24.686 1.6242 -6.67999 -0.337649 6.12288 -90.1062 14.6281 -0.720902 -0.109953 2.95738 -0.725036 -0.078115 -19.5792 -0.654529 -0.321541 0.433529 -0.654524 -0.321529 101.033 -39.4477 -84.1866 22.0762 -12.4597 3.65405 0.442558 -55.4524 -13.3741 -0.955873 -0.0570179 4.93886 -80.053 -47.7864 93.4232 -18.5339 21.6624 -6.83378 -6.01064 45.3524 -4.2356 -2.21057 -0.0866542 -2.08116 34.6695 11.6079 19.0245 -37.9533 7.22675 -15.3215 
-2.54265 10.4743 -58.0067 173.666 -2.3438 177.58 -170.129 4.25926 92.4819 -6.92004 -16.9959 -2.62233 43.0973 -5.00885 -11.3554 25.1155 0.749267 2.66163 176.243 4.10329 85.7184 -5.11073 10.0756 -2.28767 40.927 10.3797 27.2767 24.9895 1.56036 -6.67561 -0.311084 6.24216 -90.1631 14.3889 -0.69629 -0.229314 2.71818 -0.705706 -0.198451 -19.818 -0.595185 -0.427982 0.194689 -0.59518 -0.427975 101.261 -39.2793 -83.7812 21.8477 -12.3694 2.16141 1.13701 -54.9104 -12.522 -0.988267 -0.0596412 4.81201 -80.3011 -48.8441 93.0856 -16.8683 21.9741 -8.42504 -6.35088 44.4549 -4.12266 -2.21082 -0.0875368 -1.9935 36.193 12.125 20.0053 -38.3761 7.26921 -16.1143 
-2.55437 10.5095 -57.9906 173.643 -2.4547 177.777 -169.987 4.40184 92.6724 -6.97269 -16.9536 -2.64572 43.1775 -4.96544 -11.3977 25.1981 0.739295 2.56777 176.358 4.18573 85.9292 -5.11624 10.4003 -2.2782 40.8685 10.3931 27.2248 24.8407 1.50713 -6.12823 -0.282825 6.36914 -90.227 14.1347 -0.671577 -0.363668 2.46385 -0.686932 -0.333758 -20.0719 -0.531236 -0.548686 -0.0591691 -0.531237 -0.548693 101.462 -39.2886 -83.4204 21.2404 -12.4739 0.608729 1.98178 -53.7292 -11.619 -1.262 -0.0815824 4.54978 -80.4381 -50.1496 92.938 -15.0335 22.0309 -10.2156 -6.84637 43.7251 -3.7735 -2.20749 -0.0882841 -2.01278 38.2426 12.9809 21.191 -39.5339 7.61291 -17.2332 
